<?xml version="1.0" encoding="utf-8"?>
<!-- Generator: Adobe Illustrator 21.1.0, SVG Export Plug-In . SVG Version: 6.00 Build 0)  -->
<svg version="1.1" id="Layer_1" xmlns="http://www.w3.org/2000/svg" xmlns:xlink="http://www.w3.org/1999/xlink" x="0px" y="0px"
	 viewBox="0 0 1024.6 160.3" style="enable-background:new 0 0 1024.6 160.3;" xml:space="preserve">
<style type="text/css">
	.st0{fill:#FFFFFF;}
</style>
<g>
	<path class="st0" d="M56.6,146.2c-2.6,0-5-0.3-7.2-0.8c-2.2-0.5-4.1-1.6-5.7-3.2c-1.6-1.6-2.8-3.9-3.7-7c-0.9-3.1-1.3-7.2-1.3-12.5
		c0,0,0-24.7,0-49.4h28V61h-28c0-16.7,0-35.9,0-35.9H24.3V61H4.8v12.3h19.5v52.2c0,7.8,0.9,13.9,2.8,18.4c1.9,4.5,4.3,7.9,7.2,10.2
		c2.9,2.3,6.1,3.7,9.5,4.3c3.5,0.6,6.8,0.9,10,0.9c2.9,0,5.9-0.1,9-0.4c3-0.3,5.5-0.6,7.4-0.9v-12.9c-1.8,0.3-4,0.6-6.6,0.8
		C61,146.1,58.6,146.2,56.6,146.2z"/>
	<path class="st0" d="M165.8,70.8c-3.1-3.8-7-6.7-11.9-8.9c-4.9-2.1-10.6-3.2-17.2-3.2c-9.2,0-16.9,2.2-23.2,6.7
		c-6.2,4.5-10.7,9.9-13.5,16.3v-77H85.8v153.2H100v-44.7v-4.9c0-2.1,0.1-4.2,0.3-6.3c0.3-2.4,0.8-4.7,1.5-7
		c1.3-4.4,3.3-8.3,5.9-11.8s5.9-6.3,10-8.4c4-2.1,8.7-3.2,14.1-3.2c5,0,9.2,0.9,12.8,2.6c3.6,1.8,6.5,4.1,8.9,7.1
		c2.3,3,4,6.5,5,10.6s1.5,8.5,1.5,13.3v0.2v52.5h14.2V101c0.2-6.9-0.5-12.7-1.9-17.5C170.9,78.7,168.8,74.5,165.8,70.8z"/>
	<path class="st0" d="M264.9,71.2c-4-3.9-8.8-7-14.2-9.2c-5.5-2.2-11.3-3.3-17.6-3.3c-7.6,0-14.3,1.3-20.2,3.8
		c-5.9,2.6-10.9,6.1-15,10.6c-4.1,4.5-7.2,9.9-9.3,16.1c-2.1,6.2-3.2,12.9-3.2,20c0,6.9,1,13.4,3,19.6s5,11.6,9,16.3
		s9,8.4,15.1,11.1c6.1,2.7,13.2,4,21.3,4c6,0,11.4-0.8,16.3-2.5c4.9-1.7,9.2-3.9,12.8-6.7s6.6-6,9-9.6c2.3-3.6,3.9-7.4,4.8-11.4
		h-14.4c-1.6,4.8-4.7,9-9.4,12.5c-4.7,3.5-11,5.3-19,5.3c-6,0-11.1-0.9-15.3-2.8c-4.2-1.9-7.7-4.4-10.5-7.7c-2.8-3.2-4.8-7-6.1-11.3
		c-1.3-4.3-2-8.7-2.2-13.4h77.5c0-0.1,0-0.1,0-0.2c0.2,0,0.3,0,0.3,0c0.3-2.3,0.5-4.3,0.5-6c0-1.7,0.1-3.2,0.1-4.5
		c-0.2-5.9-1.4-11.6-3.8-16.9C272.1,79.7,268.9,75.2,264.9,71.2z M200.9,93.7c1.4-6.3,4.3-11.5,8.6-15.5c5.9-5.6,13.7-8.4,23.3-8.4
		c4.4,0,8.5,0.8,12.3,2.3c3.8,1.5,7.1,3.6,10,6.3c2.8,2.7,5.1,6,6.7,9.8c0.9,2.3,1.6,4.7,2,7.2c0.3,1.8,0.4,3.8,0.4,5.8
		c0,0,0,0.1,0,0.2h-0.3H200c0,0,0-0.1,0-0.1C200.1,98.6,200.4,96.1,200.9,93.7z"/>
	<path class="st0" d="M429.1,19.8c-4.5-4.7-9.8-8.4-16.2-11.1c-6.3-2.7-13.4-4-21.1-4H354h-4.1h-10.8v153.2H354v-51.6h37.8
		c7.7,0,14.8-1.3,21.1-4c6.3-2.7,11.7-6.4,16.2-11.1c4.5-4.7,7.9-10.1,10.3-16.2c2.4-6.1,3.6-12.6,3.6-19.5
		c0.1-6.9-1.1-13.4-3.6-19.5C437,29.9,433.6,24.5,429.1,19.8z M425.4,69.8c-1.7,4.5-4.1,8.4-7.2,11.8c-3.1,3.4-6.9,6.1-11.4,8.1
		s-9.4,3-15,3H354V18.3h37.8c5.5,0,10.5,1,15,3s8.2,4.7,11.4,8.1c3.1,3.4,5.5,7.4,7.2,11.9s2.5,9.3,2.5,14.2
		C427.9,60.6,427.1,65.4,425.4,69.8z"/>
	<rect x="457.1" y="4.7" class="st0" width="14.2" height="153.2"/>
	<path class="st0" d="M574.6,81.4c-3.2-7-8.2-12.5-14.9-16.6c-6.7-4.1-14.3-6.1-22.8-6.1c-7.5,0-14.3,1.3-20.5,4
		c-6.2,2.7-11.5,6.3-15.9,10.9c-4.4,4.6-7.8,10-10.2,16.2c-2.4,6.2-3.6,12.7-3.6,19.6c0,6.9,1.2,13.4,3.6,19.5s5.8,11.5,10.2,16.2
		c4.4,4.7,9.7,8.4,15.9,11.1c6.2,2.6,13.1,4,20.5,4c8.5,0,16.1-2,22.8-6.2c6.7-4.1,11.7-9.6,14.9-16.5v20.4h14.2V61h-14.2V81.4z
		 M571.9,124c-1.7,4.5-4.2,8.5-7.4,11.9c-3.2,3.4-7.1,6.2-11.6,8.2c-4.5,2.1-9.6,3.1-15.3,3.1c-5.5,0-10.6-1-15.1-3.1
		c-4.5-2-8.4-4.8-11.5-8.2c-3.1-3.4-5.5-7.4-7.3-11.9c-1.7-4.5-2.6-9.3-2.6-14.4c0-5.2,0.8-10,2.6-14.6c1.7-4.6,4.2-8.6,7.3-12
		c3.1-3.4,7-6.2,11.5-8.2c4.5-2.1,9.6-3.1,15.1-3.1c5.7,0,10.8,1.1,15.3,3.1s8.4,4.8,11.6,8.2c3.2,3.4,5.6,7.4,7.4,12
		c1.7,4.6,2.6,9.5,2.6,14.6S573.7,119.5,571.9,124z"/>
	<path class="st0" d="M701.6,73.3c1.1-1.3,2.2-2.6,3.3-3.8c3.1-3.2,6.7-6,10.6-8.4l-36.7,0V34.6c0-5,0.5-8.9,1.6-11.8
		s2.5-5.1,4.3-6.6s3.7-2.4,5.9-2.7c2.2-0.4,4.4-0.5,6.6-0.5c2.6,0,4.8,0.1,6.6,0.4c1.8,0.3,3.5,0.8,5.3,1.5V2.6
		c-1.7-0.7-3.6-1.3-5.7-1.8c-2.1-0.5-4.8-0.8-8-0.8c-2.9,0-6.2,0.3-9.7,1c-3.6,0.7-6.9,2.2-10.1,4.6c-3.1,2.4-5.8,6-7.9,10.7
		c-2.1,4.7-3.2,11.3-3.2,19.6v25.2l-44.1,0V25.1H606V61v12.3v52.3c0,7.7,0.9,13.9,2.8,18.4c1.9,4.5,4.3,7.9,7.2,10.2
		c2.9,2.3,6.1,3.7,9.5,4.3c3.4,0.6,6.7,0.9,10,0.9c2.9,0,5.9-0.1,9-0.4c3.1-0.3,5.5-0.6,7.4-0.9V145c-1.8,0.3-3.9,0.5-6.6,0.8
		c-2.6,0.2-5,0.3-7,0.3c-2.6,0-5-0.3-7.2-0.8s-4.1-1.6-5.7-3.2c-1.6-1.6-2.8-3.9-3.7-7c-0.9-3.1-1.3-7.2-1.3-12.5V73.3h44.1v84.6
		h14.3l0-84.6H701.6z"/>
	<path class="st0" d="M783.7,73.7c-4.5-4.6-9.9-8.2-16.2-10.9s-13.4-4-21.1-4s-14.7,1.3-20.9,4s-11.5,6.3-16,10.9
		c-4.5,4.6-7.9,10-10.3,16.2c-2.4,6.2-3.6,12.7-3.6,19.6c0,6.9,1.2,13.4,3.6,19.5c2.4,6.1,5.8,11.5,10.3,16.2
		c4.5,4.7,9.8,8.4,16,11.1c6.2,2.6,13.2,4,20.9,4c7.8,0,14.8-1.3,21.1-4s11.7-6.4,16.2-11.1c4.5-4.7,7.9-10.1,10.3-16.2
		c2.4-6.1,3.6-12.6,3.6-19.5c0-6.9-1.2-13.4-3.6-19.6C791.6,83.7,788.1,78.3,783.7,73.7z M780.7,124c-1.7,4.5-4.2,8.5-7.4,11.9
		c-3.2,3.4-7.1,6.2-11.6,8.2c-4.5,2.1-9.6,3.1-15.3,3.1c-5.5,0-10.5-1-15.1-3.1c-4.5-2-8.4-4.8-11.5-8.2c-3.1-3.4-5.5-7.4-7.3-11.9
		c-1.7-4.5-2.6-9.3-2.6-14.4c0-5.2,0.8-10,2.6-14.6c1.7-4.6,4.2-8.6,7.3-12c3.1-3.4,7-6.2,11.5-8.2c4.5-2.1,9.6-3.1,15.1-3.1
		c5.7,0,10.8,1.1,15.3,3.1s8.4,4.8,11.6,8.2c3.2,3.4,5.6,7.4,7.4,12c1.7,4.6,2.6,9.5,2.6,14.6S782.5,119.5,780.7,124z"/>
	<path class="st0" d="M856.1,59.7c-7.4,0-14.3,2-20.7,6.1c-6.3,4.1-11,10.1-13.9,17.9V61h-14.2v96.9h14.2v-44.7
		c0-5.7,0.7-9.5,2.1-14.5c1.4-5,3.5-9.4,6.3-13.2c2.8-3.8,6.4-6.8,10.7-9.1S850,73,856,73c1.8,0,3.2,0.1,4.5,0.2
		c1.2,0.1,2.8,0.5,4.7,1.1V61.2c-1.1-0.6-2.5-1-4.1-1.2S857.8,59.7,856.1,59.7z"/>
	<path class="st0" d="M1010.4,68.5c-5.8-6.5-14.3-9.7-25.7-9.7c-4.2,0-8.1,0.7-11.6,2s-6.7,3.1-9.5,5.3s-5.3,4.7-7.2,7.7
		c-2,2.9-3.4,6-4.3,9.1c0,0,0-0.1,0-0.1c-1.2-7.8-5-13.7-10.2-17.8c-5.2-4.2-12.3-6.2-21.3-6.2c-3.9,0-7.6,0.7-10.9,2
		c-3.4,1.3-6.3,3-9,5.1c-2.6,2.1-4.8,4.6-6.6,7.4s-3.1,5.8-3.9,8.9l0,0V61H876v96.9h14.2v-44.7v-4.5c0-11.1,2.4-20.1,7.2-26.9
		c4.8-6.9,11.4-10.3,19.9-10.3c3.4,0,6.4,0.5,9.2,1.6s5.2,2.9,7.2,5.4s3.6,5.8,4.8,9.9c1.2,4.1,1.8,9.1,1.8,15.1V158h14.4
		c0,0,0-29.8,0-44.8c0-1.7,0-3.2,0-4.4c0-11.1,2.3-20.1,7-26.9c4.7-6.9,11.3-10.3,19.9-10.3c6.9,0,12.4,2.3,16.6,7
		c4.2,4.7,6.3,12.1,6.3,22.3V158h14.4V96.8C1019.1,84.4,1016.2,75,1010.4,68.5z"/>
</g>
</svg>
